<svg width="112" height="40" viewBox="0 0 112 40" fill="none" xmlns="http://www.w3.org/2000/svg">
<g clip-path="url(#clip0_793_95738)">
<path fill-rule="evenodd" clip-rule="evenodd" d="M14.9274 3.98217C17.8834 -1.32609 25.5195 -1.32609 28.4755 3.98217L42.1111 28.4742C44.9899 33.6421 41.2532 39.9995 35.337 39.9995H8.06181C2.14771 39.9995 -1.59105 33.6421 1.28773 28.4742L14.9274 3.98217ZM17.8366 5.6025L4.19904 30.0965C2.55635 33.0444 4.689 36.6714 8.06181 36.6714H35.337C38.7119 36.6714 40.8425 33.0444 39.2018 30.0965L25.5663 5.6025C23.8788 2.57328 19.5241 2.57328 17.8366 5.6025Z" fill="#0D98BA"/>
<path fill-rule="evenodd" clip-rule="evenodd" d="M21.7026 21.1934C19.269 21.1934 17.295 23.1675 17.295 25.601C17.295 28.0346 19.269 30.0086 21.7026 30.0086C24.1361 30.0086 26.1102 28.0346 26.1102 25.601C26.1102 23.1675 24.1361 21.1934 21.7026 21.1934ZM13.9648 25.601C13.9648 21.3276 17.4291 17.8633 21.7026 17.8633C25.976 17.8633 29.4403 21.3276 29.4403 25.601C29.4403 29.8745 25.976 33.3388 21.7026 33.3388C17.4291 33.3388 13.9648 29.8745 13.9648 25.601Z" fill="#0D98BA"/>
<path d="M92.2533 16.0545V31.1457C92.2533 32.1907 91.4645 32.9795 90.4195 32.9795C89.3746 32.9795 88.5857 32.1745 88.5857 31.1457V18.0611L87.1118 18.5124C86.8943 18.5755 86.697 18.6039 86.4693 18.6039C85.5728 18.6039 84.8145 17.868 84.8145 16.9978C84.8145 16.2151 85.2922 15.593 86.0688 15.3755L88.7626 14.5114C89.4132 14.3224 89.8625 14.2207 90.3687 14.2207H90.4195C91.4645 14.2207 92.2533 15.0095 92.2533 16.0545Z" fill="#0D98BA"/>
<path d="M103.675 14.1426C98.9929 14.1426 95.5957 18.1416 95.5957 23.6491V23.6999C95.5957 29.181 98.9726 33.1576 103.624 33.1576C108.276 33.1576 111.703 29.1586 111.703 23.6491V23.6003C111.703 18.1192 108.327 14.1426 103.675 14.1426ZM107.908 23.6999C107.908 26.7149 106.454 29.7685 103.675 29.7685C101.193 29.7685 99.3914 27.1947 99.3914 23.6491V23.6003C99.3914 20.0262 101.132 17.5317 103.624 17.5317C106.117 17.5317 107.908 20.1055 107.908 23.6491V23.6999Z" fill="#0D98BA"/>
<path d="M66.0183 24.8023C66.0183 21.218 63.5176 17.4102 58.8782 17.4102C54.6963 17.4102 51.541 20.7687 51.541 25.2231V25.278C51.541 29.7893 54.7796 33.0645 59.2422 33.0645C61.4094 33.0645 63.1273 32.4282 64.646 31.0661C64.9509 30.7611 65.1217 30.3687 65.1217 29.9621C65.1217 29.1347 64.4854 28.4861 63.6742 28.4861C63.2432 28.4861 63.0277 28.5919 62.739 28.8155C61.6635 29.6795 60.5697 30.0841 59.2991 30.0841C57.0912 30.0841 55.5868 28.8318 55.1761 26.6503L55.1537 26.5283H64.3187C65.2884 26.5283 66.0183 25.7863 66.0183 24.8023ZM55.1232 24.0826L55.1436 23.9647C55.5156 21.7263 56.9001 20.3886 58.8498 20.3886C59.5837 20.3886 62.0091 20.6468 62.4788 23.9667L62.495 24.0826H55.1232Z" fill="#0D98BA"/>
<path d="M82.1131 19.2768C82.1131 19.533 82.0439 19.8197 81.9098 20.1307L76.9776 31.4568C76.4694 32.4997 75.8066 33.008 74.9446 33.008H74.7779C73.8996 33.008 73.2368 32.5017 72.7509 31.4649L67.8167 20.1673L67.7801 20.0616C67.7009 19.8298 67.6094 19.5676 67.6094 19.2768C67.6094 18.3416 68.4267 17.5508 69.3944 17.5508C70.4638 17.5508 70.9049 18.242 71.1672 18.8418L74.8897 28.4214L78.663 18.795C79.0167 17.9696 79.588 17.5508 80.3585 17.5508C81.3425 17.5508 82.1131 18.3091 82.1131 19.2768Z" fill="#0D98BA"/>
</g>
<defs>
<clipPath id="clip0_793_95738">
<rect width="112" height="40" fill="white"/>
</clipPath>
</defs>
</svg>
